Coordinates
version=1
nRows=19
nColumns=24
inDegrees=yes

Units are S.I. units (second, meters, Newtons, ...)
Angles are in degrees.

endheader
time	pelvis_tilt	pelvis_list	pelvis_rotation	pelvis_tx	pelvis_ty	pelvis_tz	hip_flexion_r	hip_adduction_r	hip_rotation_r	knee_angle_r	ankle_angle_r	subtalar_angle_r	mtp_angle_r	hip_flexion_l	hip_adduction_l	hip_rotation_l	knee_angle_l	ankle_angle_l	subtalar_angle_l	mtp_angle_l	lumbar_extension	lumbar_bending	lumbar_rotation
      2.39500000	     -6.93815464	     -0.65306384	      1.05422739	      0.51991435	      1.22475633	     -0.86178321	      5.26867760	      5.24213847	     -4.27603247	    -41.13316681	      1.82073255	      3.67132622	     27.02024324	     29.85312872	      8.23654326	      9.87233890	    -20.19256058	    -11.14886293	     -9.61332582	      6.67303180	     -5.33250211	     -2.01176368	      3.37417492
      2.40000000	     -6.82810170	     -0.35347204	      1.22079378	      0.52574537	      1.22541791	     -0.86224612	      5.94134660	      4.58489906	     -4.84908742	    -42.77377233	      0.32907779	      3.61228356	     27.55143643	     29.33531191	      8.68397342	     10.07470431	    -20.36413649	    -10.80701196	     -9.69341631	      6.65038569	     -5.35487297	     -2.42637841	      3.27098310
      2.40500000	     -6.72842904	     -0.05859469	      1.39106483	      0.53152747	      1.22608924	     -0.86272263	      6.62957681	      3.93275579	     -5.36109963	    -44.35242088	     -1.12859886	      3.47279789	     27.88769599	     28.78939707	      9.12037925	     10.27571280	    -20.46087653	    -10.44575994	     -9.75614178	      6.64219882	     -5.37269232	     -2.82794441	      3.17434478
      2.41000000	     -6.65648608	      0.21569053	      1.56754814	      0.53725692	      1.22674889	     -0.86320329	      7.35145847	      3.31298326	     -5.81286740	    -45.86188143	     -2.51831215	      3.19889949	     28.00079651	     28.24819245	      9.53073517	     10.47421767	    -20.50545875	    -10.06684426	     -9.81448875	      6.64231314	     -5.36731968	     -3.20053458	      3.06670144
      2.41500000	     -6.59533149	      0.46667951	      1.74000559	      0.54292488	      1.22742090	     -0.86368170	      8.08406265	      2.73553544	     -6.19636915	    -47.29199572	     -3.84451295	      2.81191499	     27.70919501	     27.69206014	      9.90451054	     10.65933836	    -20.49680638	     -9.66830169	     -9.83706381	      6.64598482	     -5.35559536	     -3.54132350	      3.00570829
      2.42000000	     -6.56336885	      0.69908082	      1.90954970	      0.54852773	      1.22808072	     -0.86413548	      8.85382844	      2.20220343	     -6.50874486	    -48.65173834	     -4.99453255	      2.27767602	     27.26272424	     27.14940356	     10.24322293	     10.80343853	    -20.44090465	     -9.25667749	     -9.83331424	      6.69036184	     -5.32969161	     -3.85451525	      2.86703374
      2.42500000	     -6.51408801	      0.90791979	      2.07284722	      0.55407560	      1.22879619	     -0.86458990	      9.59179754	      1.70970865	     -6.77127128	    -49.91788999	     -6.04012703	      1.83396395	     26.16776240	     26.55434667	     10.53851102	     10.92791186	    -20.31738123	     -8.80983575	     -9.71137344	      6.75068418	     -5.32344236	     -4.13507754	      2.78234535
      2.43000000	     -6.51078405	      1.08376378	      2.23034695	      0.55950191	      1.22945306	     -0.86504026	     10.40331136	      1.27736591	     -6.98425355	    -51.11927820	     -6.77950571	      1.06480432	     25.55701886	     26.02618863	     10.79589347	     11.02752515	    -20.20389910	     -8.39653146	     -9.67217184	      6.81499890	     -5.28895972	     -4.37388485	      2.68527590
      2.43500000	     -6.49169876	      1.23263700	      2.38457517	      0.56488125	      1.23018160	     -0.86548296	     11.17914374	      0.89409310	     -7.15936449	    -52.21790537	     -7.44321621	      0.43974508	     24.14302713	     25.44682774	     11.00350332	     11.11220992	    -20.02099517	     -7.93202352	     -9.43391230	      6.90990559	     -5.27478133	     -4.57536601	      2.59606577
      2.44000000	     -6.51950370	      1.34948029	      2.51450400	      0.57013170	      1.23084483	     -0.86590709	     12.03693619	      0.57630399	     -7.27194499	    -53.25050382	     -7.80471442	     -0.49169158	     23.33980338	     24.94996744	     11.17055290	     11.14956669	    -19.87103330	     -7.51709831	     -9.33383965	      6.98666233	     -5.23147151	     -4.73291518	      2.51780854
      2.44500000	     -6.54956309	      1.43412516	      2.63831141	      0.57530648	      1.23154086	     -0.86631398	     12.89176441	      0.31523346	     -7.35758967	    -54.18517979	     -8.05558145	     -1.40665860	     22.17288137	     24.44648232	     11.28771151	     11.16561297	    -19.68951055	     -7.06501330	     -9.10158759	      7.09338411	     -5.19618452	     -4.85258499	      2.43295790
      2.45000000	     -6.55992654	      1.50134870	      2.77025565	      0.58040307	      1.23226440	     -0.86675139	     13.71429985	      0.07571487	     -7.44970244	    -55.02928210	     -8.09101517	     -2.17954806	     20.72822548	     23.91119765	     11.38318087	     11.19797219	    -19.47964146	     -6.59787798	     -8.74889137	      7.16848096	     -5.19330380	     -4.93951014	      2.34343617
      2.45500000	     -6.64007259	      1.54348874	      2.85847563	      0.58539049	      1.23290708	     -0.86714116	     14.65304746	     -0.10197189	     -7.46559403	    -55.80523215	     -7.98831835	     -3.21846856	     19.96415278	     23.48275241	     11.44041237	     11.16897352	    -19.29791990	     -6.21648541	     -8.58977662	      7.24672964	     -5.13032683	     -4.99270375	      2.26673542
      2.46000000	     -6.66959468	      1.55413162	      2.96026652	      0.59029336	      1.23361009	     -0.86753937	     15.50991042	     -0.23384802	     -7.50239239	    -56.46766239	     -7.77816499	     -4.10462181	     18.59152479	     23.00323929	     11.45925704	     11.15662514	    -19.11761324	     -5.72373417	     -8.18972772	      7.33702847	     -5.13653342	     -5.00656700	      2.19882086
      2.46500000	     -6.78368386	      1.55876375	      3.02183480	      0.59514224	      1.23422502	     -0.86790252	     16.49415188	     -0.33672373	     -7.47543936	    -57.06802677	     -7.46557525	     -5.10978926	     17.87784064	     22.62700426	     11.46395542	     11.10162094	    -18.93478819	     -5.36196203	     -8.00164749	      7.40541813	     -5.05976213	     -5.00462849	      2.11038494
      2.47000000	     -6.84252341	      1.53303897	      3.09267335	      0.59990075	      1.23489976	     -0.86824928	     17.39003824	     -0.38863098	     -7.46288020	    -57.54720789	     -7.06818372	     -5.98394674	     16.70359714	     22.20686566	     11.42930316	     11.04617538	    -18.77285872	     -4.90178768	     -7.59767981	      7.47317295	     -5.06035815	     -4.96875109	      2.02548384
      2.47500000	     -6.96529309	      1.50137939	      3.13446910	      0.60458281	      1.23546803	     -0.86858828	     18.38552049	     -0.42002516	     -7.41002447	    -57.96867634	     -6.61459654	     -6.87051944	     15.98415044	     21.87091723	     11.39213747	     11.00864147	    -18.61987653	     -4.50912653	     -7.36877322	      7.53482859	     -4.99917148	     -4.91897011	      1.98217199
      2.48000000	     -7.09491523	      1.47539636	      3.16057082	      0.60925224	      1.23601943	     -0.86887927	     19.38226872	     -0.44177330	     -7.34099929	    -58.30339343	     -6.09595120	     -7.66394209	     15.29998338	     21.54600796	     11.34646298	     10.90534788	    -18.46007955	     -4.16322547	     -7.11158028	      7.60005348	     -4.93899187	     -4.86923470	      1.87205422
      2.48500000	     -7.20686088	      1.41289693	      3.18259737	      0.61384297	      1.23657753	     -0.86915983	     20.34189445	     -0.39819678	     -7.25999428	    -58.52242645	     -5.55985245	     -8.35389354	     14.47907342	     21.22382171	     11.26532819	     10.85124124	    -18.33829891	     -3.72575120	     -6.78159280	      7.65316562	     -4.90634342	     -4.78001815	      1.82233586
